 <svg  version="1.0" xmlns="http://www.w3.org/2000/svg"  width="300.000000pt" height="169.000000pt" viewBox="0 0 300.000000 169.000000"  preserveAspectRatio="xMidYMid meet">  <g transform="translate(0.000000,169.000000) scale(0.100000,-0.100000)" fill="#be4b51" stroke="none"> <path d="M1551 1421 c-18 -25 -19 -41 -1 -41 16 0 49 42 44 55 -9 22 -20 18 -43 -14z"/> <path d="M263 1425 c-74 -21 -122 -47 -165 -92 -221 -228 130 -532 437 -378 90 45 91 47 56 96 -17 23 -31 53 -31 66 0 12 -4 23 -10 23 -5 0 -10 -6 -10 -13 0 -17 -45 -64 -78 -81 -80 -40 -193 -22 -254 41 -29 30 -33 40 -33 89 0 52 3 58 41 94 56 52 130 68 208 46 55 -16 116 -64 116 -92 0 -8 5 -14 10 -14 6 0 10 11 10 23 0 13 14 43 31 66 29 41 30 43 12 57 -83 68 -236 99 -340 69z m222 -30 c28 -10 62 -26 77 -36 l27 -20 -20 -34 c-17 -29 -24 -33 -39 -25 -11 6 -22 15 -25 20 -13 21 -82 42 -140 44 -68 1 -117 -15 -158 -53 -117 -107 -41 -266 138 -288 55 -6 142 22 168 55 25 29 31 28 55 -12 20 -33 15 -56 -12 -56 -5 0 -17 -6 -25 -13 -39 -33 -190 -50 -267 -31 -86 22 -170 89 -200 160 -39 93 8 199 114 261 91 53 203 64 307 28z"/> <path d="M810 1429 c-50 -10 -142 -52 -160 -74 -9 -11 -6 -22 14 -52 14 -21 28 -51 32 -66 l6 -28 18 29 c67 109 266 116 340 12 30 -42 29 -108 -1 -149 -78 -106 -296 -94 -341 19 -10 25 -10 25 -23 -12 -8 -20 -24 -50 -36 -67 -27 -37 -19 -50 55 -85 198 -97 449 -15 503 162 39 132 -62 269 -228 307 -74 16 -111 17 -179 4z m171 -25 c38 -9 76 -22 83 -30 8 -8 18 -14 22 -14 15 0 74 -52 74 -66 0 -7 4 -14 9 -14 15 0 33 -58 33 -108 0 -49 -24 -112 -43 -112 -6 0 -8 -4 -5 -9 10 -15 -86 -81 -143 -97 -83 -25 -212 -16 -284 20 -31 15 -57 32 -57 38 0 5 9 23 21 39 l20 29 32 -24 c57 -42 89 -53 152 -51 75 2 110 16 158 63 45 43 63 100 48 144 -6 17 -8 34 -5 39 3 5 1 8 -4 7 -5 -2 -25 13 -43 32 -19 19 -41 36 -49 37 -8 1 -33 7 -55 12 -61 16 -130 3 -187 -35 l-49 -33 -19 32 -20 32 23 18 c44 36 120 62 195 66 13 0 54 -6 93 -15z"/> <path d="M1356 1419 c-38 -30 -56 -71 -56 -129 0 -101 43 -154 122 -148 38 3 43 6 46 30 3 26 2 26 -27 15 -26 -10 -35 -8 -58 9 -62 46 -48 184 20 192 16 2 35 -2 43 -8 11 -10 16 -8 23 11 8 20 5 26 -18 36 -38 18 -65 16 -95 -8z"/> <path d="M1522 1353 c-18 -4 -22 -9 -16 -26 9 -30 9 -30 34 -17 12 6 28 9 36 6 26 -10 14 -34 -23 -47 -53 -16 -63 -27 -63 -65 0 -43 23 -64 70 -64 68 0 70 3 70 96 0 113 -19 134 -108 117z m68 -139 c0 -33 -2 -35 -27 -32 -50 6 -37 41 25 67 1 1 2 -15 2 -35z"/> <path d="M1683 1350 c-22 -9 -23 -15 -23 -110 0 -93 1 -100 20 -100 18 0 20 7 20 84 0 70 3 85 17 90 29 12 43 -21 43 -101 0 -67 2 -73 21 -73 19 0 20 5 18 81 -2 65 1 83 14 90 10 6 21 4 32 -8 14 -13 16 -31 13 -90 -3 -68 -2 -73 17 -73 20 0 21 5 19 84 -1 46 -5 94 -9 105 -8 26 -49 37 -82 22 -18 -8 -29 -9 -37 -1 -12 12 -52 12 -83 0z"/> <path d="M1948 1353 c-19 -5 -22 -12 -12 -37 5 -12 10 -13 25 -5 23 12 62 2 56 -14 -3 -11 -15 -18 -60 -36 -38 -15 -53 -51 -36 -87 12 -24 22 -30 53 -32 22 -2 50 -1 63 2 22 6 23 11 23 82 0 118 -27 149 -112 127z m72 -138 c0 -32 -2 -35 -30 -35 -16 0 -30 5 -30 10 0 6 -1 13 -1 17 -1 6 43 38 59 42 1 1 2 -15 2 -34z"/> <path d="M2110 1349 c-24 -9 -25 -11 -25 -109 0 -96 1 -100 22 -100 21 0 22 5 25 88 3 84 4 87 26 85 12 -2 22 1 22 6 0 5 3 16 6 25 5 12 0 16 -22 15 -16 0 -40 -5 -54 -10z"/> <path d="M2218 1353 c-11 -3 -18 -14 -18 -30 0 -20 3 -24 18 -18 30 13 56 10 60 -7 2 -11 -8 -20 -35 -28 -53 -17 -63 -28 -63 -66 0 -49 23 -66 84 -62 l51 3 3 87 c2 77 0 90 -18 108 -19 19 -44 23 -82 13z m62 -144 c0 -27 -3 -30 -27 -27 -36 4 -43 35 -11 47 35 15 38 13 38 -20z"/> <path d="M1410 1014 l0 -53 -29 5 c-23 5 -35 1 -55 -19 -25 -25 -32 -51 -27 -111 5 -62 60 -103 118 -87 l28 7 3 151 c2 144 2 151 -18 156 -18 5 -20 0 -20 -49z m0 -160 c0 -61 -1 -64 -25 -64 -45 0 -63 82 -25 120 34 34 50 16 50 -56z"/> <path d="M2750 1051 c-7 -15 -6 -23 6 -35 20 -20 21 -20 34 5 9 15 8 24 -1 35 -16 19 -26 18 -39 -5z"/> <path d="M1764 1031 c-55 -34 -80 -134 -50 -205 22 -52 54 -76 100 -76 55 0 69 10 58 40 -6 15 -11 19 -16 12 -12 -20 -56 -13 -81 13 -20 20 -25 34 -25 78 0 85 44 127 101 97 11 -7 19 -7 19 -1 0 5 3 16 6 24 3 10 -5 18 -27 26 -43 15 -49 14 -85 -8z"/> <path d="M1498 940 c-28 -29 -30 -35 -26 -91 6 -77 29 -104 89 -102 49 2 53 5 45 30 -5 15 -13 18 -38 15 -22 -3 -35 0 -45 14 -22 30 -15 36 43 32 l56 -3 -5 49 c-8 85 -64 111 -119 56z m70 -22 c24 -24 14 -43 -23 -43 -38 0 -45 14 -19 39 19 19 26 20 42 4z"/> <path d="M1915 948 c-54 -47 -42 -175 20 -198 66 -25 126 50 109 137 -14 72 -79 103 -129 61z m85 -93 c0 -44 -13 -65 -42 -65 -24 0 -41 45 -33 87 13 73 75 55 75 -22z"/> <path d="M2095 959 l-30 -8 0 -101 c0 -98 0 -100 23 -100 23 0 23 2 21 83 l-2 82 26 3 27 3 0 -85 c0 -83 1 -86 23 -86 21 0 22 4 22 82 0 82 0 83 25 83 24 0 25 -2 28 -82 3 -75 5 -83 22 -83 18 0 20 7 20 93 0 81 -3 96 -20 112 -17 16 -25 17 -57 7 -23 -7 -42 -8 -54 -2 -21 12 -33 11 -74 -1z"/> <path d="M2354 947 c-56 -48 -36 -190 28 -199 13 -2 36 -1 51 1 22 3 27 8 25 25 -3 18 -9 21 -40 18 -28 -3 -39 1 -47 17 -17 30 -15 31 44 31 l55 0 0 40 c0 30 -7 47 -25 65 -30 31 -56 32 -91 2z m64 -29 c7 -7 12 -19 12 -28 0 -12 -8 -15 -35 -12 -40 5 -42 8 -18 34 19 21 25 22 41 6z"/> <path d="M2518 958 c-28 -10 -28 -10 -28 -109 0 -96 1 -99 23 -99 21 0 22 2 18 85 -3 90 -2 92 47 86 6 -1 12 2 12 8 0 5 3 16 6 25 5 12 0 16 -22 15 -16 0 -41 -5 -56 -11z"/> <path d="M2627 950 c-50 -39 -55 -143 -10 -182 41 -35 116 -28 106 11 -4 16 -11 19 -36 14 -22 -5 -33 -1 -44 12 -35 48 3 139 48 114 23 -12 24 -12 33 17 5 17 2 23 -16 28 -38 10 -54 7 -81 -14z"/> <path d="M2768 963 c-16 -4 -18 -18 -18 -109 0 -97 1 -104 20 -104 19 0 20 7 20 110 0 61 -1 109 -2 109 -2 -1 -11 -3 -20 -6z"/> <path d="M2868 963 c-45 -12 -69 -120 -38 -177 16 -31 62 -49 95 -36 61 23 74 151 21 197 -26 22 -42 26 -78 16z m67 -86 c12 -63 -28 -110 -63 -75 -18 18 -15 88 4 109 23 25 51 9 59 -34z"/> <path d="M289 870 c-110 -19 -226 -108 -249 -189 -40 -144 49 -270 225 -317 100 -27 220 -8 307 48 52 33 56 39 32 59 -21 17 -44 63 -44 89 0 29 -13 25 -28 -10 -17 -38 -84 -78 -144 -86 -61 -9 -135 17 -177 60 -66 68 -47 162 44 213 50 28 149 31 198 7 40 -21 87 -64 87 -81 0 -7 5 -13 10 -13 6 0 10 11 10 23 0 13 13 43 30 65 l30 41 -35 26 c-71 55 -198 83 -296 65z m228 -49 c28 -12 54 -29 57 -37 7 -18 -14 -65 -25 -58 -5 3 -9 0 -9 -6 0 -7 -7 -5 -16 5 -96 95 -300 69 -360 -47 -15 -28 -20 -128 -6 -128 4 0 16 -13 27 -29 46 -69 192 -100 275 -58 64 32 80 44 72 53 -4 5 3 0 16 -10 12 -11 22 -28 22 -38 0 -11 4 -16 10 -13 5 3 10 2 10 -3 0 -14 -97 -59 -155 -72 -65 -15 -212 1 -199 21 3 5 -2 6 -10 3 -13 -5 -91 40 -124 73 -7 7 -22 34 -34 59 -51 116 21 245 165 295 75 27 213 22 284 -10z"/> <path d="M823 869 c-56 -9 -122 -37 -163 -69 l-25 -19 24 -32 c13 -18 30 -51 36 -73 11 -39 13 -39 20 -16 18 61 88 99 179 100 99 0 164 -42 186 -122 20 -69 -44 -148 -135 -169 -94 -21 -200 22 -227 90 l-10 26 -13 -39 c-8 -22 -23 -53 -35 -68 -26 -35 -18 -48 49 -83 205 -103 466 -14 511 175 20 84 -21 180 -101 235 -80 56 -196 81 -296 64z m227 -46 c56 -25 118 -85 137 -132 61 -145 -57 -291 -254 -316 -99 -12 -258 38 -258 81 0 11 6 18 13 16 8 -1 11 2 7 8 -4 6 -1 17 5 25 10 12 18 10 48 -14 77 -60 168 -65 266 -16 47 24 58 35 76 78 20 45 21 54 9 96 -8 25 -12 49 -11 54 1 4 -5 7 -13 7 -8 0 -15 4 -15 8 0 5 -23 21 -52 37 -43 24 -61 28 -117 25 -99 -3 -109 -5 -106 -11 2 -3 -12 -13 -31 -24 -19 -10 -34 -23 -34 -29 0 -14 -49 46 -50 61 0 16 87 56 106 49 8 -3 12 -2 9 3 -9 15 25 20 125 17 69 -2 107 -8 140 -23z"/> <path d="M1410 615 c0 -52 -1 -55 -19 -45 -47 25 -97 -35 -94 -113 3 -73 52 -114 119 -101 l34 6 0 154 c0 147 -1 154 -20 154 -18 0 -20 -7 -20 -55z m0 -150 c0 -62 -1 -65 -25 -65 -27 0 -45 25 -45 65 0 40 18 65 45 65 24 0 25 -3 25 -65z"/> <path d="M2581 644 c-22 -29 -25 -37 -14 -47 8 -9 53 32 53 49 0 25 -19 24 -39 -2z"/> <path d="M1738 652 l-28 -3 0 -144 0 -144 34 -6 c39 -8 73 0 99 23 22 20 23 94 1 116 -14 14 -14 18 0 38 47 67 -11 132 -106 120z m72 -57 c20 -24 -3 -65 -35 -65 -23 0 -25 4 -25 40 0 35 3 40 24 40 13 0 29 -7 36 -15z m0 -125 c30 -30 10 -70 -37 -70 -21 0 -23 5 -23 45 0 38 3 45 20 45 11 0 29 -9 40 -20z"/> <path d="M2412 600 c3 -20 0 -30 -9 -30 -16 0 -17 -37 -1 -42 8 -3 11 -26 9 -67 -2 -44 2 -70 13 -87 17 -24 49 -31 74 -16 19 13 3 42 -21 39 -20 -2 -22 3 -25 67 l-3 69 26 -5 c21 -4 25 -2 25 18 0 19 -5 24 -25 24 -21 0 -25 5 -25 30 0 24 -4 30 -21 30 -18 0 -21 -5 -17 -30z m33 -50 c3 -5 2 -10 -4 -10 -5 0 -13 5 -16 10 -3 6 -2 10 4 10 5 0 13 -4 16 -10z"/> <path d="M1498 550 c-29 -29 -30 -34 -26 -92 4 -52 9 -65 33 -86 23 -19 36 -23 63 -18 42 6 45 9 38 33 -5 15 -13 18 -36 15 -33 -5 -60 11 -60 35 0 12 12 14 55 11 l55 -3 0 33 c0 60 -34 101 -83 102 -5 0 -22 -14 -39 -30z m82 -48 c0 -13 -9 -17 -35 -18 -38 -1 -44 10 -19 37 19 22 54 9 54 -19z"/> <path d="M1909 551 c-25 -26 -29 -37 -29 -86 0 -49 4 -60 29 -86 16 -16 39 -29 51 -29 12 0 35 13 51 29 25 26 29 37 29 86 0 49 -4 60 -29 86 -16 16 -39 29 -51 29 -12 0 -35 -13 -51 -29z m81 -40 c17 -33 12 -79 -12 -103 l-21 -21 -19 23 c-32 40 -18 120 22 120 11 0 24 -9 30 -19z"/> <path d="M2086 556 c-29 -28 -34 -73 -14 -109 18 -33 17 -70 -4 -85 -23 -17 -23 -64 0 -85 26 -24 104 -23 125 1 20 22 22 77 5 89 -7 4 -29 13 -48 18 -40 12 -43 29 -5 33 36 5 59 44 52 87 -3 20 -2 33 2 30 5 -2 11 4 14 15 4 17 0 20 -26 20 -18 0 -42 3 -54 6 -15 4 -29 -2 -47 -20z m72 -57 c4 -34 -22 -57 -43 -39 -16 13 -20 51 -8 64 16 16 48 1 51 -25z m6 -162 c17 -13 17 -14 1 -30 -21 -21 -49 -22 -70 -1 -33 33 29 61 69 31z"/> <path d="M2267 569 c-61 -35 -63 -165 -3 -205 49 -32 109 4 121 73 15 90 -55 168 -118 132z m61 -51 c18 -18 15 -88 -4 -109 -37 -41 -79 32 -54 92 13 30 37 38 58 17z"/> <path d="M2560 571 c-15 -4 -25 -14 -25 -26 0 -15 8 -19 37 -19 21 -1 38 -5 39 -11 2 -10 -6 -15 -55 -37 -38 -17 -51 -39 -42 -71 10 -42 48 -61 99 -51 l42 9 0 89 c-1 80 -3 90 -24 107 -25 20 -31 21 -71 10z m56 -140 c-1 -34 -25 -46 -52 -26 -20 14 -12 32 20 45 32 13 33 12 32 -19z"/> </g> </svg> 